<svg xmlns="http://www.w3.org/2000/svg" viewBox="0 0 34.51 16.81"><defs><style>.cls-1{fill:#252525;}.cls-2{fill:#279dda;}</style></defs><path class="cls-1" d="M17.3,29.3H15.4l-.74-1.46H11.23l-.71,1.46H8.67L12,22.85h1.83Zm-3.19-2.55-1.18-2.39-1.18,2.39Z" transform="translate(-8.67 -22.85)"/><path class="cls-1" d="M25.22,26.14a3,3,0,0,1-1.09,2.44,4.53,4.53,0,0,1-2.86.72H18V22.85h3.17a7.91,7.91,0,0,1,1.67.14,2.91,2.91,0,0,1,1.64,1A3.29,3.29,0,0,1,25.22,26.14Zm-1.78-.05a1.94,1.94,0,0,0-.82-1.88,5.26,5.26,0,0,0-2.09-.27h-.78v4.27h1.3a3.3,3.3,0,0,0,1.68-.29A2,2,0,0,0,23.44,26.09Z" transform="translate(-8.67 -22.85)"/><path class="cls-1" d="M34.22,29.3h-1.9l-.74-1.46H28.15l-.7,1.46H25.59L29,22.85h1.82ZM31,26.75l-1.18-2.39-1.17,2.39Z" transform="translate(-8.67 -22.85)"/><path class="cls-1" d="M43.18,29.3h-1.6V24.22h0L39.89,29.3H38.21l-1.68-5.08h0V29.3H34.9V22.85h2.59L39,27.25h0l1.52-4.4h2.6Z" transform="translate(-8.67 -22.85)"/><path class="cls-1" d="M27.74,35.43A14,14,0,0,1,27.68,37a3.29,3.29,0,0,1-.42,1.46,3.16,3.16,0,0,1-2.86,1.18c-1.56,0-2.59-.44-3.07-1.33a6.14,6.14,0,0,1-.45-2.81v-4.6h1.73v4.66c0,.57,0,1,0,1.14a1.82,1.82,0,0,0,.2.69,1.54,1.54,0,0,0,1.52.77,1.44,1.44,0,0,0,1.45-.71,5,5,0,0,0,.2-1.8V30.92h1.74Z" transform="translate(-8.67 -22.85)"/><path class="cls-2" d="M31,39.52H29.25v-8.6H31Z" transform="translate(-8.67 -22.85)"/></svg>