<svg xmlns="http://www.w3.org/2000/svg" viewBox="0 0 34.51 16.81"><defs><style>.cls-1{fill:#fff;}.cls-2{fill:#089082;}</style></defs><path class="cls-1" d="M55.94,29.3H54.05l-.74-1.46H49.87l-.7,1.46H47.32l3.35-6.45H52.5Zm-3.18-2.55-1.19-2.39L50.4,26.75Z" transform="translate(-47.32 -22.85)"/><path class="cls-1" d="M63.87,26.14a3,3,0,0,1-1.09,2.44,4.53,4.53,0,0,1-2.86.72H56.67V22.85h3.16a8,8,0,0,1,1.68.14,3,3,0,0,1,1.64,1A3.29,3.29,0,0,1,63.87,26.14Zm-1.79-.05c0-1-.27-1.59-.82-1.88a5.17,5.17,0,0,0-2.08-.27h-.79v4.27h1.3a3.35,3.35,0,0,0,1.69-.29A2,2,0,0,0,62.08,26.09Z" transform="translate(-47.32 -22.85)"/><path class="cls-1" d="M72.87,29.3H71l-.74-1.46H66.8l-.71,1.46H64.24l3.35-6.45h1.83Zm-3.19-2.55-1.19-2.39-1.17,2.39Z" transform="translate(-47.32 -22.85)"/><path class="cls-1" d="M81.83,29.3h-1.6V24.22h0L78.54,29.3H76.86l-1.69-5.08h0V29.3h-1.6V22.85h2.59l1.54,4.4h0l1.52-4.4h2.6Z" transform="translate(-47.32 -22.85)"/><path class="cls-1" d="M66.39,35.43A14,14,0,0,1,66.33,37a3.42,3.42,0,0,1-.43,1.46,3.13,3.13,0,0,1-2.85,1.18c-1.57,0-2.59-.44-3.07-1.33a6.14,6.14,0,0,1-.45-2.81v-4.6h1.72v4.66c0,.57,0,1,0,1.14a1.65,1.65,0,0,0,.2.69,1.53,1.53,0,0,0,1.52.77,1.44,1.44,0,0,0,1.45-.71,5.23,5.23,0,0,0,.2-1.8V30.92h1.74Z" transform="translate(-47.32 -22.85)"/><path class="cls-2" d="M69.62,39.52H67.9v-8.6h1.72Z" transform="translate(-47.32 -22.85)"/></svg>